<?xml version="1.0" encoding="utf-8"?>
<!-- Generator: Adobe Illustrator 28.0.0, SVG Export Plug-In . SVG Version: 6.00 Build 0)  -->
<svg version="1.1" xmlns="http://www.w3.org/2000/svg" xmlns:xlink="http://www.w3.org/1999/xlink" x="0px" y="0px"
	 viewBox="0 0 1920 242" style="enable-background:new 0 0 1920 242;" xml:space="preserve">
<style type="text/css">
	.st0{display:none;}
	.st1{display:inline;}
</style>
<g id="Layer_1" class="st0">
	<g class="st1">
		<g>
			<path d="M522.4,122.7l-18.1,1v66.1l-36.5,2V29.2c0-10,8.1-18.6,18.1-19.1L526,7.8c18.3-1,32.4,2.9,42.4,11.8
				c10,8.9,15,22.1,15,39.6c0,24-8.7,41.3-26.2,51.9l31.7,72.2v1.7l-39.2,2.2L522.4,122.7z M504.3,93.3l20.7-1.2
				c7.3-0.4,12.7-3.1,16.4-8.2c3.6-5,5.5-11.6,5.5-19.7c0-18.1-7.1-26.8-21.2-26l-21.4,1.2V93.3z"/>
			<path d="M699.3,141.8l-49.8,2.8l-9.7,37.5l-38.6,2.2L653.8,13c2.3-7.5,9.2-13,16.9-13.4l20.4-1.1L748,176.1l-39,2.2L699.3,141.8z
				 M657.5,113.8l33.8-1.9l-16.9-63.5L657.5,113.8z"/>
			<path d="M798.3,109.7v45.4c0,10-8.1,18.6-18.1,19.1l-18.4,1V12.7c0-10,8.1-18.6,18.1-19.1l43.5-2.4c17.9-1,32.1,3.7,42.8,14.2
				c10.6,10.5,16,24.6,16,42.3c0,17.7-5.3,32-15.8,42.9c-10.5,10.9-25.1,16.8-43.7,17.9L798.3,109.7z M798.3,79.3l25.1-1.4
				c7-0.4,12.3-3,16.1-7.7c3.8-4.8,5.7-11.5,5.7-20.2c0-9-1.9-16.1-5.8-21.2c-3.9-5.1-9.1-7.5-15.6-7.3l-25.5,1.4V79.3z"/>
			<path d="M1007.6,161.5l-18.3,1V85.2l-53.9,3v77.4l-36.5,2V5c0-10,8.1-18.6,18.1-19.1l18.4-1v73.1l53.9-3v-73.1l36.4-2v162.7
				C1025.7,152.4,1017.6,160.9,1007.6,161.5z"/>
			<path d="M1140.5,117l-49.8,2.8l-9.7,37.5l-38.6,2.2L1095-11.7c2.3-7.5,9.2-13,16.9-13.4l20.4-1.1l56.9,177.6l-39,2.2L1140.5,117z
				 M1098.7,89l33.8-1.9l-16.9-63.5L1098.7,89z"/>
			<path d="M1299.4,66.9l-56.9,3.2V118l67.3-3.8v12.2c0,10-8.1,18.6-18.1,19.1l-85.7,4.8V-12.3c0-10,8.1-18.6,18.1-19.1l85.4-4.8
				v30.4l-67,3.8v42.7l56.9-3.2V66.9z"/>
			<path d="M1361.3,111.4l64.1-3.6v12.2c0,10-8.1,18.6-18.1,19.1l-82.4,4.6V-19c0-10,8.1-18.6,18.1-19.1l18.4-1V111.4z"/>
		</g>
		<g>
			<g>
				<path d="M652,522.8l-32.2,1.8l-90.4-195.7v200.7l-61.8,3.5V256.6c0-16.3,13.2-30.3,29.5-31.2l32.2-1.8L620,419.5V218.5l61.6-3.5
					v276.5C681.6,507.9,668.4,521.8,652,522.8z"/>
				<path d="M886.3,377.2l-96.3,5.4v81.1l113.9-6.4v21.7c0,16.3-13.2,30.3-29.5,31.2l-146.2,8.2V242c0-16.3,13.2-30.3,29.5-31.2
					l145.8-8.2v51.5L790,260.5v72.3l96.3-5.4V377.2z"/>
				<path d="M1028.6,383.5l-24.4,32.1V503l-61.8,3.5V230c0-16.3,13.2-30.3,29.5-31.2l32.2-1.8v133.5l19.5-34.1l57-103.7l75.7-4.2
					l-87.7,139.4l89.1,166.5l-73.4,4.1L1028.6,383.5z"/>
			</g>
			<g>
				<path d="M1425.4,333.2c0,30.2-5.3,57-16,80.3c-10.7,23.4-26,41.8-45.8,55.3c-19.9,13.5-42.7,20.9-68.4,22.4
					c-25.4,1.4-48.1-3.4-68.1-14.5c-20-11.1-35.4-27.7-46.4-49.8c-11-22.1-16.5-47.9-16.6-77.4v-15.2c0-30.2,5.4-57.1,16.3-80.7
					c10.9-23.6,26.3-42.1,46.2-55.5c19.9-13.4,42.6-20.8,68.2-22.3c25.6-1.4,48.3,3.4,68.2,14.6c19.9,11.2,35.3,27.9,46.2,50.3
					c10.9,22.4,16.3,48.6,16.3,78.6V333.2z M1361.3,322.9c0-32.2-5.8-56.3-17.3-72.4c-11.5-16.1-28-23.5-49.3-22.3
					c-21.2,1.2-37.6,10.4-49.1,27.5c-11.5,17.2-17.4,41.7-17.5,73.6v15c0,31.3,5.8,55.3,17.3,71.9c11.5,16.6,28.1,24.3,49.7,23.1
					c21.2-1.2,37.5-10.4,48.9-27.7c11.4-17.3,17.1-41.9,17.3-73.8V322.9z"/>
			</g>
		</g>
		<path d="M1294.7,200.4l43.3-16.6l75.5-27.6c2.6-1,5.2,1.2,4.7,3.9l-15.2,86.5L1294.7,200.4z"/>
		<path d="M1295.2,200.4l-43.3-11.7l-75.5-19.1c-2.6-0.7-5.2,1.7-4.7,4.4l15.2,84.8L1295.2,200.4z"/>
		<path d="M1428.8,374c42.6-18.6,65.8-12.3,87.7,1.4c20.7,12.9,66.9,44,103-7.2c36.1-51.3,64.4-13.8,45.3,6.6
			c-19.2,20.4-40.8,54.6-102.1,45.8s-62.3-56.9-138-30.2"/>
	</g>
</g>
<g id="Layer_3" class="st0">
	<g>
		<g class="st1">
			<path d="M1047.9,201.7h-12.3v44.7h-24.7V136.4c0-6.8,5.5-12.3,12.3-12.3h27.1c12.4,0,21.9,3.2,28.7,9.6
				c6.8,6.4,10.1,15.5,10.1,27.4c0,16.2-5.9,27.6-17.7,34.1l21.4,50.1v1.2h-26.6L1047.9,201.7z M1035.6,181.2h14
				c4.9,0,8.6-1.6,11.1-4.9c2.5-3.3,3.7-7.7,3.7-13.2c0-12.3-4.8-18.4-14.4-18.4h-14.5V181.2z"/>
			<path d="M1167.6,221.4h-33.7l-6.6,25h-26.1l35.6-113.9c1.6-5,6.2-8.4,11.5-8.4h13.8l38.5,122.4h-26.4L1167.6,221.4z
				 M1139.2,200.8h22.9l-11.4-43.6L1139.2,200.8z"/>
			<path d="M1234.6,203.4v30.8c0,6.8-5.5,12.3-12.3,12.3h-12.4V136.4c0-6.8,5.5-12.3,12.3-12.3h29.4c12.1,0,21.8,3.8,29,11.3
				c7.2,7.5,10.8,17.3,10.8,29.2c0,12-3.6,21.5-10.7,28.4c-7.1,6.9-17,10.4-29.6,10.4H1234.6z M1234.6,182.8h17
				c4.7,0,8.3-1.5,10.9-4.6c2.6-3.1,3.9-7.6,3.9-13.4c0-6.1-1.3-11-3.9-14.6c-2.6-3.6-6.2-5.4-10.6-5.5h-17.2V182.8z"/>
			<path d="M1376.2,246.5h-12.4v-52.4h-36.5v52.4h-24.7V136.4c0-6.8,5.5-12.3,12.3-12.3h12.4v49.5h36.5v-49.5h24.6v110.1
				C1388.5,241,1383,246.5,1376.2,246.5z"/>
			<path d="M1466.2,221.4h-33.7l-6.6,25h-26.1l35.6-113.9c1.6-5,6.2-8.4,11.5-8.4h13.8l38.5,122.4h-26.4L1466.2,221.4z
				 M1437.9,200.8h22.9l-11.4-43.6L1437.9,200.8z"/>
			<path d="M1573.8,193.5h-38.5V226h45.5v8.2c0,6.8-5.5,12.3-12.3,12.3h-58V136.4c0-6.8,5.5-12.3,12.3-12.3h57.8v20.6h-45.4v28.9
				h38.5V193.5z"/>
			<path d="M1615.6,226h43.4v8.2c0,6.8-5.5,12.3-12.3,12.3h-55.8V136.4c0-6.8,5.5-12.3,12.3-12.3h12.4V226z"/>
		</g>
		<g class="st1">
			<g>
				<path d="M1135.6,477.5h-21.8l-61.2-135.9v135.9h-41.8V290.3c0-11,9-20,20-20h21.8l61.3,136v-136h41.7v187.1
					C1155.6,468.5,1146.6,477.5,1135.6,477.5z"/>
				<path d="M1294.1,387.8H1229v54.9h77.1v14.7c0,11-9,20-20,20h-98.9V290.3c0-11,9-20,20-20h98.7v34.9H1229v48.9h65.2V387.8z"/>
				<path d="M1390.5,397.5l-16.5,20.8v59.2h-41.8V290.3c0-11,9-20,20-20h21.8v90.3l13.2-22.3l38.6-68h51.2l-59.3,91.1l60.3,116.1
					h-49.7L1390.5,397.5z"/>
			</g>
			<g>
				<path d="M1659,378.5c0,20.4-3.6,38.4-10.8,53.8c-7.2,15.4-17.6,27.3-31,35.7c-13.5,8.4-28.9,12.6-46.3,12.6
					c-17.2,0-32.6-4.1-46.1-12.4c-13.5-8.3-24-20.1-31.4-35.4c-7.4-15.4-11.2-33-11.3-53v-10.3c0-20.4,3.7-38.4,11.1-54
					c7.4-15.5,17.8-27.5,31.2-35.8c13.5-8.3,28.8-12.5,46.1-12.5c17.3,0,32.7,4.2,46.1,12.5c13.5,8.3,23.9,20.3,31.2,35.8
					c7.4,15.5,11.1,33.5,11.1,53.8V378.5z M1615.6,369.1c0-21.8-3.9-38.3-11.7-49.6c-7.8-11.3-18.9-17-33.4-17
					c-14.4,0-25.4,5.6-33.2,16.8c-7.8,11.2-11.7,27.6-11.8,49.1v10.1c0,21.2,3.9,37.7,11.7,49.4c7.8,11.7,19,17.5,33.7,17.5
					c14.4,0,25.4-5.6,33.1-16.9s11.6-27.7,11.7-49.3V369.1z"/>
			</g>
		</g>
		<path class="st1" d="M1570.6,283.7l29.3-9.6l51.1-15.8c1.8-0.6,3.5,1,3.2,2.8l-10.3,58L1570.6,283.7z"/>
		<path class="st1" d="M1570.9,283.7l-29.3-9.6l-51.1-15.8c-1.8-0.6-3.5,1-3.2,2.8l10.3,58L1570.9,283.7z"/>
		<path class="st1" d="M1661.3,406.3c28.9-11,44.5-5.8,59.4,4.3c14,9.5,45.3,32.3,69.7-1s43.6-6.9,30.6,6.2s-27.6,35.4-69.1,27.1
			s-42.2-40.9-93.4-25.7"/>
	</g>
</g>
<g id="Layer_2">
	<g>
		<g>
			<path d="M78.8,151.2H59.5v70.5h-39V48.1c0-10.7,8.7-19.3,19.3-19.3h42.8c19.5,0,34.6,5.1,45.2,15.2c10.6,10.1,16,24.5,16,43.1
				c0,25.6-9.3,43.5-28,53.8l33.8,79v1.9h-41.9L78.8,151.2z M59.5,118.7h22.1c7.8,0,13.6-2.6,17.5-7.8c3.9-5.2,5.8-12.1,5.8-20.7
				c0-19.3-7.6-29-22.7-29H59.5V118.7z"/>
			<path d="M267.5,182.2h-53.1l-10.3,39.5h-41.2L219,42c2.5-7.9,9.8-13.3,18.1-13.3h21.7l60.7,192.9h-41.6L267.5,182.2z
				 M222.9,149.7h36l-18-68.8L222.9,149.7z"/>
			<path d="M373.2,153.8v48.5c0,10.7-8.7,19.3-19.3,19.3h-19.6V48.1c0-10.7,8.7-19.3,19.3-19.3H400c19.1,0,34.3,5.9,45.6,17.8
				c11.3,11.8,17,27.2,17,46.1c0,18.9-5.6,33.8-16.8,44.8c-11.2,11-26.8,16.4-46.6,16.4H373.2z M373.2,121.4H400
				c7.4,0,13.2-2.4,17.2-7.3c4.1-4.9,6.1-11.9,6.1-21.2c0-9.6-2.1-17.3-6.2-23c-4.2-5.7-9.7-8.6-16.7-8.7h-27.2V121.4z"/>
			<path d="M596.5,221.7H577v-82.5h-57.5v82.5h-39V48.1c0-10.7,8.7-19.3,19.3-19.3h19.6v78H577v-78h38.8v173.6
				C615.8,213,607.1,221.7,596.5,221.7z"/>
			<path d="M738.3,182.2h-53.1l-10.3,39.5h-41.2L689.8,42c2.5-7.9,9.8-13.3,18.1-13.3h21.7l60.7,192.9h-41.6L738.3,182.2z
				 M693.7,149.7h36l-18-68.8L693.7,149.7z"/>
			<path d="M907.9,138.2h-60.7v51.1H919v13c0,10.7-8.7,19.3-19.3,19.3h-91.4V48.1c0-10.7,8.7-19.3,19.3-19.3h91.2v32.5h-71.5v45.6
				h60.7V138.2z"/>
			<path d="M973.9,189.3h68.4v13c0,10.7-8.7,19.3-19.3,19.3h-88V48.1c0-10.7,8.7-19.3,19.3-19.3h19.6V189.3z"/>
		</g>
		<g>
			<g>
				<path d="M1259.9,221.2h-20.2l-56.7-126v126h-38.8V47.7c0-10.2,8.3-18.5,18.5-18.5h20.2l56.9,126.1V29.1h38.7v173.6
					C1278.4,212.9,1270.1,221.2,1259.9,221.2z"/>
				<path d="M1407,138.1h-60.4V189h71.5v13.6c0,10.2-8.3,18.5-18.5,18.5h-91.8V47.7c0-10.2,8.3-18.5,18.5-18.5h91.5v32.3h-71.2v45.4
					h60.4V138.1z"/>
				<path d="M1496.3,147.1l-15.3,19.3v54.9h-38.8V47.7c0-10.2,8.3-18.5,18.5-18.5h20.2v83.8l12.3-20.7l35.8-63.1h47.5l-55,84.4
					l55.9,107.7h-46L1496.3,147.1z"/>
			</g>
			<g>
				<path d="M1745.3,129.5c0,19-3.4,35.6-10.1,49.9c-6.7,14.3-16.3,25.3-28.8,33.1c-12.5,7.8-26.8,11.6-42.9,11.6
					c-16,0-30.2-3.8-42.7-11.5c-12.5-7.7-22.2-18.6-29.1-32.9c-6.9-14.2-10.4-30.6-10.5-49.1V121c0-19,3.4-35.7,10.3-50.1
					c6.8-14.4,16.5-25.5,29-33.2c12.5-7.7,26.7-11.6,42.8-11.6c16,0,30.3,3.9,42.8,11.6c12.5,7.7,22.1,18.8,29,33.2
					c6.8,14.4,10.3,31.1,10.3,49.9V129.5z M1705.1,120.8c0-20.2-3.6-35.5-10.8-46c-7.2-10.5-17.6-15.7-31-15.7
					c-13.3,0-23.6,5.2-30.8,15.5c-7.2,10.4-10.9,25.6-11,45.6v9.4c0,19.7,3.6,34.9,10.8,45.8c7.2,10.8,17.6,16.3,31.2,16.3
					c13.3,0,23.5-5.2,30.7-15.7c7.1-10.5,10.8-25.7,10.8-45.7V120.8z"/>
			</g>
		</g>
		<path d="M1663.3,41.5l27.2-8.9l47.4-14.6c1.7-0.5,3.3,0.9,3,2.6l-9.5,53.8L1663.3,41.5z"/>
		<path d="M1663.6,41.5l-27.2-8.9L1589,18c-1.7-0.5-3.3,0.9-3,2.6l9.5,53.8L1663.6,41.5z"/>
		<path d="M1747.5,155.3c26.8-10.2,41.3-5.4,55.1,4c13,8.8,42,30,64.7-0.9s40.4-6.4,28.4,5.8c-12,12.1-25.6,32.8-64.1,25.1
			c-38.5-7.7-39.1-37.9-86.6-23.8"/>
	</g>
</g>
</svg>
