<?xml version="1.0" encoding="utf-8"?>
<!-- Generator: Adobe Illustrator 28.0.0, SVG Export Plug-In . SVG Version: 6.00 Build 0)  -->
<svg version="1.1" xmlns="http://www.w3.org/2000/svg" xmlns:xlink="http://www.w3.org/1999/xlink" x="0px" y="0px"
	 viewBox="0 0 1242 612" style="enable-background:new 0 0 1242 612;" xml:space="preserve">
<style type="text/css">
	.st0{display:none;}
	.st1{display:inline;}
</style>
<g id="Layer_1">
	<g>
		<g>
			<path d="M74.1,181.7l-18.1,1v66.1l-36.5,2V88.2c0-10,8.1-18.6,18.1-19.1l40.1-2.3c18.3-1,32.4,2.9,42.4,11.8
				c10,8.9,15,22.1,15,39.6c0,24-8.7,41.3-26.2,51.9l31.7,72.2v1.7l-39.2,2.2L74.1,181.7z M56,152.3l20.7-1.2
				c7.3-0.4,12.7-3.1,16.4-8.2c3.6-5,5.5-11.6,5.5-19.7c0-18.1-7.1-26.8-21.2-26L56,98.4V152.3z"/>
			<path d="M251,200.8l-49.8,2.8l-9.7,37.5l-38.6,2.2L205.5,72c2.3-7.5,9.2-13,16.9-13.4l20.4-1.1l56.9,177.6l-39,2.2L251,200.8z
				 M209.1,172.8l33.8-1.9L226,107.4L209.1,172.8z"/>
			<path d="M350,168.7v45.4c0,10-8.1,18.6-18.1,19.1l-18.4,1V71.7c0-10,8.1-18.6,18.1-19.1l43.5-2.4c17.9-1,32.1,3.7,42.8,14.2
				c10.6,10.5,16,24.6,16,42.3c0,17.7-5.3,32-15.8,42.9c-10.5,10.9-25.1,16.8-43.7,17.9L350,168.7z M350,138.3l25.1-1.4
				c7-0.4,12.3-3,16.1-7.7c3.8-4.8,5.7-11.5,5.7-20.2c0-9-1.9-16.1-5.8-21.2c-3.9-5.1-9.1-7.5-15.6-7.3L350,81.9V138.3z"/>
			<path d="M559.3,220.5l-18.3,1v-77.4l-53.9,3v77.4l-36.5,2V64c0-10,8.1-18.6,18.1-19.1l18.4-1v73.1l53.9-3V40.8l36.4-2v162.7
				C577.4,211.4,569.3,220,559.3,220.5z"/>
			<path d="M692.2,176.1l-49.8,2.8l-9.7,37.5l-38.6,2.2l52.6-171.3c2.3-7.5,9.2-13,16.9-13.4l20.4-1.1l56.9,177.6l-39,2.2
				L692.2,176.1z M650.4,148l33.8-1.9l-16.9-63.5L650.4,148z"/>
			<path d="M851.1,125.9l-56.9,3.2V177l67.3-3.8v12.2c0,10-8.1,18.6-18.1,19.1l-85.7,4.8V46.7c0-10,8.1-18.6,18.1-19.1l85.4-4.8
				v30.4l-67,3.8v42.7l56.9-3.2V125.9z"/>
			<path d="M913,170.4l64.1-3.6v12.2c0,10-8.1,18.6-18.1,19.1l-82.4,4.6V40.1c0-10,8.1-18.6,18.1-19.1l18.4-1V170.4z"/>
		</g>
		<g>
			<g>
				<path d="M203.7,581.8l-32.2,1.8L81.1,387.9v200.7l-61.8,3.5V315.6c0-16.3,13.2-30.3,29.5-31.2l32.2-1.8l90.6,195.9V277.5
					l61.6-3.5v276.5C233.3,566.9,220.1,580.9,203.7,581.8z"/>
				<path d="M438,436.2l-96.3,5.4v81.1l113.9-6.4v21.7c0,16.3-13.2,30.3-29.5,31.2l-146.2,8.2V301c0-16.3,13.2-30.3,29.5-31.2
					l145.8-8.2v51.5l-113.5,6.4v72.3l96.3-5.4V436.2z"/>
				<path d="M580.3,442.5l-24.4,32.1V562l-61.8,3.5V289c0-16.3,13.2-30.3,29.5-31.2l32.2-1.8v133.5l19.5-34.1l57-103.7l75.7-4.2
					l-87.7,139.4l89.1,166.5l-73.4,4.1L580.3,442.5z"/>
			</g>
			<g>
				<path d="M977.1,392.2c0,30.2-5.3,57-16,80.3c-10.7,23.4-26,41.8-45.8,55.3c-19.9,13.5-42.7,20.9-68.4,22.4
					c-25.4,1.4-48.1-3.4-68.1-14.5c-20-11.1-35.4-27.7-46.4-49.8c-11-22.1-16.5-47.9-16.6-77.4v-15.2c0-30.2,5.4-57.1,16.3-80.7
					c10.9-23.6,26.3-42.1,46.2-55.5c19.9-13.4,42.6-20.8,68.2-22.3c25.6-1.4,48.3,3.4,68.2,14.6c19.9,11.2,35.3,27.9,46.2,50.3
					c10.9,22.4,16.3,48.6,16.3,78.6V392.2z M913,381.9c0-32.2-5.8-56.3-17.3-72.4c-11.5-16.1-28-23.5-49.3-22.3
					c-21.2,1.2-37.6,10.4-49.1,27.5c-11.5,17.2-17.4,41.7-17.5,73.6v15c0,31.3,5.8,55.3,17.3,71.9c11.5,16.6,28.1,24.3,49.7,23.1
					c21.2-1.2,37.5-10.4,48.9-27.7s17.1-41.9,17.3-73.8V381.9z"/>
			</g>
		</g>
		<path d="M846.4,259.4l43.3-16.6l75.5-27.6c2.6-1,5.2,1.2,4.7,3.9l-15.2,86.5L846.4,259.4z"/>
		<path d="M846.9,259.4l-43.3-11.7l-75.5-19.1c-2.6-0.7-5.2,1.7-4.7,4.4l15.2,84.8L846.9,259.4z"/>
		<path d="M980.5,433.1c42.6-18.6,65.8-12.3,87.7,1.4c20.7,12.9,66.9,44,103-7.2c36.1-51.3,64.4-13.8,45.3,6.6
			c-19.2,20.4-40.8,54.6-102.1,45.8c-61.3-8.8-62.3-56.9-138-30.2"/>
	</g>
</g>
<g id="Layer_3" class="st0">
	<g>
		<g class="st1">
			<path d="M708.9,386.7h-12.3v44.7h-24.7V321.4c0-6.8,5.5-12.3,12.3-12.3h27.1c12.4,0,21.9,3.2,28.7,9.6
				c6.8,6.4,10.1,15.5,10.1,27.4c0,16.2-5.9,27.6-17.7,34.1l21.4,50.1v1.2h-26.6L708.9,386.7z M696.6,366.2h14
				c4.9,0,8.6-1.6,11.1-4.9c2.5-3.3,3.7-7.7,3.7-13.2c0-12.3-4.8-18.4-14.4-18.4h-14.5V366.2z"/>
			<path d="M828.6,406.4h-33.7l-6.6,25h-26.1l35.6-113.9c1.6-5,6.2-8.4,11.5-8.4H823l38.5,122.4h-26.4L828.6,406.4z M800.2,385.8
				h22.9l-11.4-43.6L800.2,385.8z"/>
			<path d="M895.6,388.4v30.8c0,6.8-5.5,12.3-12.3,12.3h-12.4V321.4c0-6.8,5.5-12.3,12.3-12.3h29.4c12.1,0,21.8,3.8,29,11.3
				c7.2,7.5,10.8,17.3,10.8,29.2c0,12-3.6,21.5-10.7,28.4c-7.1,6.9-17,10.4-29.6,10.4H895.6z M895.6,367.8h17
				c4.7,0,8.3-1.5,10.9-4.6c2.6-3.1,3.9-7.6,3.9-13.4c0-6.1-1.3-11-3.9-14.6c-2.6-3.6-6.2-5.4-10.6-5.5h-17.2V367.8z"/>
			<path d="M1037.2,431.5h-12.4v-52.4h-36.5v52.4h-24.7V321.4c0-6.8,5.5-12.3,12.3-12.3h12.4v49.5h36.5v-49.5h24.6v110.1
				C1049.5,426,1044,431.5,1037.2,431.5z"/>
			<path d="M1127.2,406.4h-33.7l-6.6,25h-26.1l35.6-113.9c1.6-5,6.2-8.4,11.5-8.4h13.8l38.5,122.4h-26.4L1127.2,406.4z
				 M1098.9,385.8h22.9l-11.4-43.6L1098.9,385.8z"/>
			<path d="M1234.8,378.5h-38.5V411h45.5v8.2c0,6.8-5.5,12.3-12.3,12.3h-58V321.4c0-6.8,5.5-12.3,12.3-12.3h57.8v20.6h-45.4v28.9
				h38.5V378.5z"/>
			<path d="M1276.6,411h43.4v8.2c0,6.8-5.5,12.3-12.3,12.3h-55.8V321.4c0-6.8,5.5-12.3,12.3-12.3h12.4V411z"/>
		</g>
		<g class="st1">
			<g>
				<path d="M796.6,662.5h-21.8l-61.2-135.9v135.9h-41.8V475.3c0-11,9-20,20-20h21.8l61.3,136v-136h41.7v187.1
					C816.6,653.5,807.6,662.5,796.6,662.5z"/>
				<path d="M955.1,572.8H890v54.9h77.1v14.7c0,11-9,20-20,20h-98.9V475.3c0-11,9-20,20-20h98.7v34.9H890v48.9h65.2V572.8z"/>
				<path d="M1051.5,582.5l-16.5,20.8v59.2h-41.8V475.3c0-11,9-20,20-20h21.8v90.3l13.2-22.3l38.6-68h51.2l-59.3,91.1l60.3,116.1
					h-49.7L1051.5,582.5z"/>
			</g>
			<g>
				<path d="M1320,563.5c0,20.4-3.6,38.4-10.8,53.8c-7.2,15.4-17.6,27.3-31,35.7c-13.5,8.4-28.9,12.6-46.3,12.6
					c-17.2,0-32.6-4.1-46.1-12.4c-13.5-8.3-24-20.1-31.4-35.4c-7.4-15.4-11.2-33-11.3-53v-10.3c0-20.4,3.7-38.4,11.1-54
					c7.4-15.5,17.8-27.5,31.2-35.8c13.5-8.3,28.8-12.5,46.1-12.5c17.3,0,32.7,4.2,46.1,12.5c13.5,8.3,23.9,20.3,31.2,35.8
					c7.4,15.5,11.1,33.5,11.1,53.8V563.5z M1276.6,554.1c0-21.8-3.9-38.3-11.7-49.6c-7.8-11.3-18.9-17-33.4-17
					c-14.4,0-25.4,5.6-33.2,16.8c-7.8,11.2-11.7,27.6-11.8,49.1v10.1c0,21.2,3.9,37.7,11.7,49.4c7.8,11.7,19,17.5,33.7,17.5
					c14.4,0,25.4-5.6,33.1-16.9c7.7-11.3,11.6-27.7,11.7-49.3V554.1z"/>
			</g>
		</g>
		<path class="st1" d="M1231.6,468.7l29.3-9.6l51.1-15.8c1.8-0.6,3.5,1,3.2,2.8l-10.3,58L1231.6,468.7z"/>
		<path class="st1" d="M1231.9,468.7l-29.3-9.6l-51.1-15.8c-1.8-0.6-3.5,1-3.2,2.8l10.3,58L1231.9,468.7z"/>
		<path class="st1" d="M1322.3,591.3c28.9-11,44.5-5.8,59.4,4.3c14,9.5,45.3,32.3,69.7-1s43.6-6.9,30.6,6.2
			c-13,13.1-27.6,35.4-69.1,27.1c-41.5-8.3-42.2-40.9-93.4-25.7"/>
	</g>
</g>
<g id="Layer_2" class="st0">
	<g class="st1">
		<g>
			<path d="M-260.2,336.2h-19.3v70.5h-39V233.1c0-10.7,8.7-19.3,19.3-19.3h42.8c19.5,0,34.6,5.1,45.2,15.2
				c10.6,10.1,16,24.5,16,43.1c0,25.6-9.3,43.5-28,53.8l33.8,79v1.9h-41.9L-260.2,336.2z M-279.5,303.7h22.1
				c7.8,0,13.6-2.6,17.5-7.8c3.9-5.2,5.8-12.1,5.8-20.7c0-19.3-7.6-29-22.7-29h-22.8V303.7z"/>
			<path d="M-71.5,367.2h-53.1l-10.3,39.5h-41.2L-120,227c2.5-7.9,9.8-13.3,18.1-13.3h21.7l60.7,192.9h-41.6L-71.5,367.2z
				 M-116.1,334.7h36l-18-68.8L-116.1,334.7z"/>
			<path d="M34.2,338.8v48.5c0,10.7-8.7,19.3-19.3,19.3H-4.8V233.1c0-10.7,8.7-19.3,19.3-19.3H61c19.1,0,34.3,5.9,45.6,17.8
				c11.3,11.8,17,27.2,17,46.1c0,18.9-5.6,33.8-16.8,44.8c-11.2,11-26.8,16.4-46.6,16.4H34.2z M34.2,306.4H61
				c7.4,0,13.2-2.4,17.2-7.3c4.1-4.9,6.1-11.9,6.1-21.2c0-9.6-2.1-17.3-6.2-23c-4.2-5.7-9.7-8.6-16.7-8.7H34.2V306.4z"/>
			<path d="M257.5,406.7H238v-82.5h-57.5v82.5h-39V233.1c0-10.7,8.7-19.3,19.3-19.3h19.6v78H238v-78h38.8v173.6
				C276.8,398,268.1,406.7,257.5,406.7z"/>
			<path d="M399.3,367.2h-53.1l-10.3,39.5h-41.2L350.8,227c2.5-7.9,9.8-13.3,18.1-13.3h21.7l60.7,192.9h-41.6L399.3,367.2z
				 M354.7,334.7h36l-18-68.8L354.7,334.7z"/>
			<path d="M568.9,323.2h-60.7v51.1H580v13c0,10.7-8.7,19.3-19.3,19.3h-91.4V233.1c0-10.7,8.7-19.3,19.3-19.3h91.2v32.5h-71.5v45.6
				h60.7V323.2z"/>
			<path d="M634.9,374.3h68.4v13c0,10.7-8.7,19.3-19.3,19.3h-88V233.1c0-10.7,8.7-19.3,19.3-19.3h19.6V374.3z"/>
		</g>
		<g>
			<g>
				<path d="M920.9,406.2h-20.2l-56.7-126v126h-38.8V232.7c0-10.2,8.3-18.5,18.5-18.5h20.2l56.9,126.1V214.1h38.7v173.6
					C939.4,397.9,931.1,406.2,920.9,406.2z"/>
				<path d="M1068,323.1h-60.4V374h71.5v13.6c0,10.2-8.3,18.5-18.5,18.5h-91.8V232.7c0-10.2,8.3-18.5,18.5-18.5h91.5v32.3h-71.2
					v45.4h60.4V323.1z"/>
				<path d="M1157.3,332.1l-15.3,19.3v54.9h-38.8V232.7c0-10.2,8.3-18.5,18.5-18.5h20.2v83.8l12.3-20.7l35.8-63.1h47.5l-55,84.4
					l55.9,107.7h-46L1157.3,332.1z"/>
			</g>
			<g>
				<path d="M1406.3,314.5c0,19-3.4,35.6-10.1,49.9c-6.7,14.3-16.3,25.3-28.8,33.1c-12.5,7.8-26.8,11.6-42.9,11.6
					c-16,0-30.2-3.8-42.7-11.5c-12.5-7.7-22.2-18.6-29.1-32.9c-6.9-14.2-10.4-30.6-10.5-49.1V306c0-19,3.4-35.7,10.3-50.1
					c6.8-14.4,16.5-25.5,29-33.2c12.5-7.7,26.7-11.6,42.8-11.6c16,0,30.3,3.9,42.8,11.6c12.5,7.7,22.1,18.8,29,33.2
					c6.8,14.4,10.3,31.1,10.3,49.9V314.5z M1366.1,305.8c0-20.2-3.6-35.5-10.8-46c-7.2-10.5-17.6-15.7-31-15.7
					c-13.3,0-23.6,5.2-30.8,15.5c-7.2,10.4-10.9,25.6-11,45.6v9.4c0,19.7,3.6,34.9,10.8,45.8c7.2,10.8,17.6,16.3,31.2,16.3
					c13.3,0,23.5-5.2,30.7-15.7s10.8-25.7,10.8-45.7V305.8z"/>
			</g>
		</g>
		<path d="M1324.3,226.5l27.2-8.9l47.4-14.6c1.7-0.5,3.3,0.9,3,2.6l-9.5,53.8L1324.3,226.5z"/>
		<path d="M1324.6,226.5l-27.2-8.9L1250,203c-1.7-0.5-3.3,0.9-3,2.6l9.5,53.8L1324.6,226.5z"/>
		<path d="M1408.5,340.3c26.8-10.2,41.3-5.4,55.1,4c13,8.8,42,30,64.7-0.9s40.4-6.4,28.4,5.8s-25.6,32.8-64.1,25.1
			c-38.5-7.7-39.1-37.9-86.6-23.8"/>
	</g>
</g>
</svg>
